<svg xmlns="http://www.w3.org/2000/svg" viewBox="0 0 24 24" fill="currentColor">
    <path d="M10.5 2.60666C11.2804 1.79834 12.7196 1.79834 13.5 2.60666L23 12.4465L21.5 14.0002L20 12.4465V20.0002C19.9999 21.1047 19.1045 22.0002 18 22.0002H13.5V16.0002H10.5V22.0002H6C4.8955 22.0002 4.00011 21.1047 4 20.0002V12.4465L2.5 14.0002L1 12.4465L10.5 2.60666ZM6 10.3742V20.0002H8.5V16.0002C8.5 14.8956 9.39543 14.0002 10.5 14.0002H13.5C14.6046 14.0002 15.5 14.8956 15.5 16.0002V20.0002H18V10.3742L12 4.16037L6 10.3742Z"/>
</svg>